<svg id="Layer_1" data-name="Layer 1" xmlns="http://www.w3.org/2000/svg" viewBox="0 0 5179.96401 4709.05819"><title>icon-amazon</title><path d="M9.41812,3654.22915Q32.96105,3616.559,84.763,3649.5201q1177.25984,682.81574,2561.72765,682.81344,922.97081,0,1822.40552-343.76125,23.543-9.41582,68.28134-28.25435,44.73375-18.83853,63.57229-28.25435,70.63587-28.25435,110.66287,28.25435,40.0224,56.5087-25.89982,103.59928-84.763,61.22005-216.61668,141.27175-404.9836,240.162-904.13917,372.0156-499.16247,131.85593-974.775,131.85363-734.61308,0-1389.17217-256.64367Q546.24834,4195.77314,28.25435,3729.57409,0,3706.03109,0,3682.4835,0,3668.35633,9.41812,3654.22915ZM1426.84463,2312.14757q0-324.925,160.108-555.66887Q1747.056,1525.73255,2024.895,1408.0084q254.28914-108.306,626.30474-155.39892,127.14457-14.12717,414.39712-37.67247v-80.054q0-301.382-65.92681-404.979-98.89022-141.27175-310.79784-141.27175h-37.67247q-155.39892,14.12717-268.41632,98.89022T2236.80264,922.9754q-18.83853,94.17886-94.18116,108.30834l-541.54169-65.92681q-80.05859-18.83864-80.054-84.763,0-14.12717,4.70906-32.96341,80.05169-419.10383,393.20636-621.59568Q2232.09128,23.54294,2651.19976,0h117.72645q536.83263,0,838.21236,277.83443a897.17215,897.17215,0,0,1,87.11758,101.24475q40.0224,54.15652,63.57229,96.53569,23.543,42.38152,42.38152,122.43551,18.83163,80.05169,28.25435,110.66287,9.41582,30.60658,14.12717,131.85363,4.70446,101.24245,4.70906,120.081V2100.24q0,122.43321,35.31794,223.68026,35.31794,101.24245,68.28134,145.9808,32.95881,44.73375,108.30834,143.62628,28.25435,42.38152,28.25435,75.34493,0,37.67017-37.67247,65.92681-390.85643,339.05219-423.81524,367.30654-56.5087,42.38152-136.56269,9.41812-65.93141-56.5087-115.37193-108.30834-49.44511-51.79734-70.63587-75.34493-21.19076-23.543-68.28134-91.82663-47.09288-68.28364-65.92681-91.82663-263.71186,287.25485-517.9964,357.88842-160.11028,47.09288-395.56089,47.09058-362.60208,0-595.69586-223.68026Q1426.84463,2721.83333,1426.84463,2312.14757Zm809.958-94.18116q0,183.65327,91.82663,294.31614,91.82664,110.66517,247.22556,110.66287,14.12717,0,40.027-4.70906,25.89522-4.71136,35.31794-4.70906,197.78044-51.79734,306.08878-254.28914,51.79734-89.4744,77.69946-195.42591,25.89522-105.95381,28.25435-171.88062,2.35223-65.92452,2.35453-216.61668V1657.58848q-273.12768,0-414.39712,37.67247Q2236.80034,1812.9897,2236.80264,2217.96641ZM4214.60708,3734.28314q9.41582-18.83853,28.25435-37.67247,117.72186-80.05169,226.03479-108.30834,178.94191-47.09288,348.47031-51.79964,47.086-4.71136,89.4721,4.70906,211.90762,18.83853,254.28914,70.63587,18.83163,28.25435,18.83623,84.763v32.96341q0,164.81474-89.4721,388.4973-89.47441,223.68256-249.58008,360.243-23.54989,18.83853-42.38152,18.83623a41.76089,41.76089,0,0,1-18.83623-4.70906q-28.25435-14.12718-14.12717-51.79964,174.23055-409.68806,174.23515-569.796,0-51.79734-18.83623-75.34493-47.09288-56.5087-263.70726-56.5087-80.05859,0-188.36233,9.41812-117.72875,14.12717-216.61668,28.25435-28.25435,0-37.67246-9.41812-9.42272-9.41582-4.70906-18.83623Q4209.898,3743.699,4214.60708,3734.28314Z"/></svg>