<svg id="Layer_1" data-name="Layer 1" xmlns="http://www.w3.org/2000/svg" viewBox="0 0 104.4238 64.81346"><defs><style>.cls-1{fill:#a8e00f;}</style></defs><title>icon-beatport</title><path class="cls-1" d="M90.1084,37.8965A37.895,37.895,0,1,0,24.5898,63.8282l.002-.002a2.34771,2.34771,0,0,0,3.3174.0986l4.0849-3.8437a2.348,2.348,0,0,0,.1084-3.3086l.0039-.0049a27.583,27.583,0,1,1,40.2129,0l.0088.0088a2.3452,2.3452,0,0,0,.1123,3.3047l4.086,3.8437a2.34714,2.34714,0,0,0,3.3183-.1005l-.0039-.002A37.74786,37.74786,0,0,0,90.1084,37.8965"/><path class="cls-1" d="M104.4238,37.7149a50.63491,50.63491,0,0,0-2.3027-15.1426h.0019l-.0058-.0127-.0039-.0156a2.35291,2.35291,0,0,0-2.9307-1.5176l-5.3564,1.665a2.3463,2.3463,0,0,0-1.5469,2.9336l-.0059.0039a40.41378,40.41378,0,0,1-3.8642,32.751l.0058.0059a2.347,2.347,0,0,0,.8145,3.208l4.8115,2.8848a2.34736,2.34736,0,0,0,3.2197-.8047,50.56708,50.56708,0,0,0,7.1631-25.959"/><path class="cls-1" d="M16.0166,58.3809a40.42015,40.42015,0,0,1-3.8643-32.749h.002V25.628a2.34935,2.34935,0,0,0-1.5449-2.9356L5.251,21.0235a2.34958,2.34958,0,0,0-2.9297,1.5244l-.0088-.0049A50.72309,50.72309,0,0,0,7.165,63.6748l.0078-.0039a2.34654,2.34654,0,0,0,3.212.794l4.8095-2.8848a2.34665,2.34665,0,0,0,.8194-3.1972Z"/></svg>